HIERARCHY
ROOT Pelvis
{
	OFFSET 0.000000 0.000000 0.000000
	CHANNELS 6 Xposition Yposition Zposition Zrotation Yrotation Xrotation 
	JOINT Left_hip
	{
		OFFSET 0.070241 -0.085575 -0.010474
		CHANNELS 3 Zrotation Yrotation Xrotation
		JOINT Left_knee
		{
			OFFSET 0.032125 -0.356873 -0.000555
			CHANNELS 3 Zrotation Yrotation Xrotation
			JOINT Left_ankle
			{
				OFFSET -0.010961 -0.370212 -0.042278
				CHANNELS 3 Zrotation Yrotation Xrotation
				JOINT Left_foot
				{
					OFFSET 0.023322 -0.052281 0.110104
					CHANNELS 3 Zrotation Yrotation Xrotation
					End Site
					{
						OFFSET 0.000000 0.000000 0.000000
					}
				}
			}
		}
	}
	JOINT Right_hip
	{
		OFFSET -0.068518 -0.084320 -0.007402
		CHANNELS 3 Zrotation Yrotation Xrotation
		JOINT Right_knee
		{
			OFFSET -0.037345 -0.364815 -0.003619
			CHANNELS 3 Zrotation Yrotation Xrotation
			JOINT Right_ankle
			{
				OFFSET 0.013394 -0.370006 -0.039954
				CHANNELS 3 Zrotation Yrotation Xrotation
				JOINT Right_foot
				{
					OFFSET -0.019600 -0.045455 0.113223
					CHANNELS 3 Zrotation Yrotation Xrotation
					End Site
					{
						OFFSET 0.000000 0.000000 0.000000
					}
				}
			}
		}
	}
	JOINT Spine1
	{
		OFFSET -0.002404 0.098129 -0.018169
		CHANNELS 3 Zrotation Yrotation Xrotation
		JOINT Spine2
		{
			OFFSET 0.003989 0.127209 -0.001742
			CHANNELS 3 Zrotation Yrotation Xrotation
			JOINT Spine3
			{
				OFFSET 0.001758 0.046641 0.023475
				CHANNELS 3 Zrotation Yrotation Xrotation
				JOINT Neck
				{
					OFFSET -0.003759 0.194901 -0.039982
					CHANNELS 3 Zrotation Yrotation Xrotation
					JOINT Head
					{
						OFFSET 0.003999 0.063756 0.047665
						CHANNELS 3 Zrotation Yrotation Xrotation
						End Site
						{
							OFFSET 0.000000 0.000000 0.000000
						}
					}
				}
				JOINT Left_collar
				{
					OFFSET 0.071816 0.109048 -0.028973
					CHANNELS 3 Zrotation Yrotation Xrotation
					JOINT Left_shoulder
					{
						OFFSET 0.084027 0.032269 -0.006525
						CHANNELS 3 Zrotation Yrotation Xrotation
						JOINT Left_elbow
						{
							OFFSET 0.243854 -0.013992 -0.025905
							CHANNELS 3 Zrotation Yrotation Xrotation
							JOINT Left_wrist
							{
								OFFSET 0.232156 0.008196 -0.000339
								CHANNELS 3 Zrotation Yrotation Xrotation
								JOINT Left_palm
								{
									OFFSET 0.075377 -0.009461 -0.012494
									CHANNELS 3 Zrotation Yrotation Xrotation
									End Site
									{
										OFFSET 0.000000 0.000000 0.000000
									}
								}
							}
						}
					}
				}
				JOINT Right_collar
				{
					OFFSET -0.073768 0.107001 -0.033755
					CHANNELS 3 Zrotation Yrotation Xrotation
					JOINT Right_shoulder
					{
						OFFSET -0.086837 0.032868 -0.009431
						CHANNELS 3 Zrotation Yrotation Xrotation
						JOINT Right_elbow
						{
							OFFSET -0.236446 -0.012544 -0.018747
							CHANNELS 3 Zrotation Yrotation Xrotation
							JOINT Right_wrist
							{
								OFFSET -0.236110 0.006124 -0.004327
								CHANNELS 3 Zrotation Yrotation Xrotation
								JOINT Right_palm
								{
									OFFSET -0.074800 -0.006875 -0.009610
									CHANNELS 3 Zrotation Yrotation Xrotation
									End Site
									{
										OFFSET 0.000000 0.000000 0.000000
									}
								}
							}
						}
					}
				}
			}
		}
	}
}
MOTION
Frames: 6
Frame Time: 0.100000
0.000000 0.000000 0.000000 178.801566 19.044242 -7.372511 -1.199338 5.136333 0.954477 -0.178411 -6.249717 -3.470553 -3.253392 25.305711 -5.542714 9.367879 -4.245386 2.144030 2.900877 -4.899878 1.852956 -1.025689 6.695029 -3.668066 -4.004548 -22.814075 -4.940986 10.375685 5.154443 8.454325 -0.698294 2.418068 -3.835582 0.719423 -2.658564 -3.790914 -0.700620 2.181988 -3.345176 -3.125973 -4.284176 5.323402 1.566712 0.150540 3.871794 -5.829439 3.663124 -10.308898 7.640342 -16.885438 -14.279153 2.950236 11.149589 -3.415588 -0.664624 -0.049753 38.865796 0.741859 -7.589977 -2.553198 8.693599 0.457095 -7.959985 -10.731202 13.106296 -22.028992 -8.626805 -13.082206 -9.064125 -3.346461 -0.636110 36.878454 7.146940 8.680535 -4.235998 
-0.001680 0.000281 -0.002381 178.752090 18.975892 -7.626572 -1.288312 5.108940 1.031351 -0.212431 -6.320082 -3.337210 -3.201634 25.471696 -5.636733 9.390238 -4.283321 2.187405 2.831283 -4.940824 1.934421 -1.052388 6.739997 -3.587703 -4.031358 -22.887514 -4.848442 10.471924 5.210096 8.537579 -0.697309 2.457513 -3.702250 0.762759 -2.664127 -3.627656 -0.734397 2.215138 -3.075047 -3.155489 -4.437677 6.126334 1.569094 0.278351 4.567615 -5.878006 3.887532 -10.352988 7.768708 -17.056009 -14.579348 3.154588 10.916741 -4.018094 0.381477 -0.278678 38.346310 0.690919 -7.528337 -2.226564 8.757605 0.198516 -8.079986 -10.959007 13.131803 -22.289946 -8.763556 -13.048211 -9.407243 -4.172695 -0.408756 36.980233 7.184029 8.642816 -4.102396 
-0.002599 0.000929 -0.005957 178.723740 18.849209 -7.841049 -1.327519 5.214631 1.105251 -0.274656 -6.269689 -3.451018 -3.387231 25.527367 -5.698938 9.744499 -4.467284 2.118879 2.764264 -4.933365 1.991734 -1.110662 6.780571 -3.755774 -3.953188 -22.911847 -4.673779 10.398148 5.504868 8.628281 -0.755691 2.544084 -3.582896 0.804011 -2.657383 -3.248079 -0.766462 2.254377 -2.954176 -3.176896 -4.630965 6.977810 1.625743 0.220287 5.390525 -6.051881 4.130371 -10.359773 8.239140 -17.466736 -14.997149 3.150010 9.559646 -4.963539 0.523710 -0.638888 37.498504 0.272406 -7.603255 -2.282230 8.964001 0.058947 -8.096986 -11.244859 13.201388 -22.429983 -8.709655 -12.859616 -10.174366 -4.309319 -0.268129 36.419807 7.236813 8.727222 -4.020721 
-0.001421 0.001896 -0.012586 178.556345 18.544046 -7.737343 -1.064125 5.519372 0.627338 -0.453855 -6.008082 -3.677868 -3.764648 25.475418 -5.462869 10.142375 -4.757056 1.750775 2.877508 -4.808360 0.967508 -0.918107 6.841565 -3.080471 -3.690544 -22.856897 -4.693447 10.045746 6.057999 8.668104 -0.770407 2.518259 -3.002243 0.814541 -2.552297 -3.214117 -0.772179 2.315169 -2.795920 -3.120866 -4.952099 7.331994 1.859076 -0.220229 6.297613 -6.120029 4.324363 -10.322983 8.663360 -17.848284 -15.034574 3.188318 7.285622 -4.982523 1.986453 -2.120413 36.564926 0.028209 -7.592117 -2.160264 9.182805 0.044487 -7.973571 -11.218722 13.175725 -22.256478 -8.425006 -12.349642 -10.519864 -5.643580 0.878552 35.367294 7.047716 8.665850 -3.611078 
0.008014 0.001870 -0.022486 177.965561 17.748536 -7.331454 0.100667 6.009031 -0.358397 -0.563355 -5.313508 -4.370561 -2.642740 24.438148 -3.371923 7.959021 -3.458983 0.775965 3.906149 -4.064123 -2.073653 -0.413696 6.443144 0.079407 -1.627165 -22.228709 -5.766525 6.575806 5.181673 8.008390 -1.690175 1.815919 -1.174372 1.496799 -2.665636 -3.426212 -0.157481 1.806603 -2.333771 -2.794414 -4.621248 6.103600 2.738075 -1.572021 5.148272 -3.286569 4.014053 -8.029276 1.553875 -16.148500 -8.808096 3.228940 12.913964 10.634762 0.819187 -2.874397 39.843227 2.047720 -6.594774 -3.984695 8.069593 -0.163429 -7.754619 -4.553333 14.106186 -19.897847 -12.093084 -10.121250 -10.257341 -8.744489 4.172263 28.963410 7.525861 6.378207 -3.329741 
0.026693 0.005655 -0.034878 177.289473 15.719198 -6.981721 1.951198 6.880945 -1.689254 -0.522112 -3.285889 -4.569670 -1.048321 22.548265 -1.302592 5.219630 -1.245257 -0.933724 5.060670 -2.052424 -7.243516 1.079169 5.735084 7.484914 -1.455670 -19.462501 -7.935855 6.351066 3.599383 8.225407 -2.936164 0.106159 1.175303 2.194945 -3.148693 -0.399204 -0.368507 0.969703 -3.526588 0.487720 -5.397016 -0.161828 3.297686 -1.999125 5.198345 -9.314423 2.824580 -2.743487 -16.973871 -10.464178 5.538154 0.188544 9.961445 24.435786 10.942348 -8.236989 32.400707 2.562740 -4.839566 -3.505877 13.467942 1.449471 -4.511078 9.781731 17.977436 -12.359899 -14.005109 -6.004818 -11.943374 -29.134456 10.229678 17.473345 8.743702 3.027432 -0.237064 
